:SAMPLES-PER-SECOND 30
:FRAME-RANGE 1-1086
:FULLY-SPECIFIED
:DEGREES
951
root  1.19743 32.205 -133.057 -137.116 -7.33238 -173.5
RightUpLeg  -84.3236 -6.68989 12.9112
RightLeg  61.695 -3.55414 -7.68465
RightFoot  -18.7972 0.224542 5.39916
RightToes  -5.8209e-011 0 -3.6325e-017
Spine  92.9552 -16.9225 -81.3176
Spine1  -101.174 -80.0329 134.938
HEad  166.135 -2.53482 -179.372
LeftShoulder1  37.3983 54.0508 79.2459
LeftArm  47.6879 40.478 42.0032
LeftForeArm  -26.2828 -31.3258 -8.15455
LeftHand  1.00648 -2.01566 -15.5594
RightShoulder  -171.43 -66.3243 164.89
RightArm  -31.3423 6.02072 -5.33278
RightForeArm  -26.6549 17.8068 7.7071
RightHand  2.6163 6.92585 23.8734
LeftUpLeg  -97.795 22.1494 -19.718
LeftLeg  59.5067 -4.39476 -7.48193
LeftFoot  -8.68989 -0.0819275 5.7972
LeftToes  5.72949e-011 5.22586e-011 2.45399e-011
952
root  1.01276 32.0798 -133.24 -136.062 -7.72911 -173.598
RightUpLeg  -85.4619 -6.99722 12.9051
RightLeg  62.3724 -3.53622 -7.8792
RightFoot  -19.1859 0.260298 5.69034
RightToes  -5.8209e-011 0 -3.6325e-017
Spine  92.6061 -17.0031 -81.0588
Spine1  -99.9487 -80.3582 134.241
HEad  166.404 -1.93942 -179.117
LeftShoulder1  37.2348 53.9173 79.1602
LeftArm  47.2899 40.1963 39.8645
LeftForeArm  -26.7056 -30.6769 -7.99714
LeftHand  0.99229 -2.06828 -15.2277
RightShoulder  -172.871 -66.1609 165.824
RightArm  -31.7919 5.34329 -5.55747
RightForeArm  -24.9433 16.5327 8.08514
RightHand  2.67572 7.1181 24.0314
LeftUpLeg  -99.0366 21.5377 -20.6673
LeftLeg  60.2306 -4.38751 -7.70133
LeftFoot  -9.14303 -0.0713175 6.58079
LeftToes  5.72949e-011 5.22586e-011 2.45399e-011
953
root  0.847583 31.9578 -133.413 -135.049 -8.0862 -173.614
RightUpLeg  -86.4938 -7.08069 12.8565
RightLeg  62.9691 -3.71364 -8.4621
RightFoot  -19.6655 0.34188 6.52571
RightToes  -5.8209e-011 0 -3.6325e-017
Spine  92.0974 -17.283 -80.7474
Spine1  -98.3368 -80.8303 133.052
HEad  166.744 -1.24496 -178.822
LeftShoulder1  37.1359 54.1541 78.7118
LeftArm  46.4175 40.1366 37.8165
LeftForeArm  -27.1328 -29.8674 -7.80021
LeftHand  1.00125 -2.16368 -15.163
RightShoulder  -174.406 -65.736 166.829
RightArm  -31.6233 4.50303 -5.4732
RightForeArm  -24.2235 16.3286 8.12798
RightHand  2.69257 7.35762 23.7254
LeftUpLeg  -100.294 20.9764 -21.484
LeftLeg  60.9328 -4.29552 -7.76143
LeftFoot  -9.5823 -0.051086 7.0792
LeftToes  5.72949e-011 5.22586e-011 2.45399e-011
954
root  0.728138 31.9017 -133.543 -134.18 -8.51512 -173.812
RightUpLeg  -87.2067 -6.97149 12.1578
RightLeg  63.2818 -3.93833 -9.0555
RightFoot  -19.8776 0.413651 7.342
RightToes  -5.8209e-011 0 -3.6325e-017
Spine  91.972 -17.583 -80.6647
Spine1  -96.7855 -80.8224 131.859
HEad  167.462 -0.777178 -178.764
LeftShoulder1  36.8914 54.2864 78.1691
LeftArm  45.5215 40.3372 36.7641
LeftForeArm  -27.6454 -29.665 -7.76766
LeftHand  0.998608 -2.04329 -15.3782
RightShoulder  -174.988 -65.2534 167.226
RightArm  -30.1224 3.60227 -5.26814
RightForeArm  -25.6576 17.6253 7.77759
RightHand  2.62043 7.46681 22.901
LeftUpLeg  -101.11 20.3005 -22.1498
LeftLeg  61.2202 -4.2655 -7.79994
LeftFoot  -9.59439 -0.0560887 7.46007
LeftToes  5.72949e-011 5.22586e-011 2.45399e-011
955
root  0.630787 31.8313 -133.663 -133.563 -8.83678 -173.892
RightUpLeg  -87.723 -6.70739 11.4594
RightLeg  63.7013 -4.2012 -9.79326
RightFoot  -20.1155 0.495045 8.22117
RightToes  -5.8209e-011 0 -3.6325e-017
Spine  91.7837 -17.8793 -80.6182
Spine1  -95.8607 -80.7951 131.296
HEad  168.244 -0.531895 -178.756
LeftShoulder1  36.644 54.5682 77.4385
LeftArm  44.804 40.6947 36.1294
LeftForeArm  -27.6091 -29.6384 -7.7593
LeftHand  0.970184 -1.97842 -15.0781
RightShoulder  -175.179 -64.9105 167.366
RightArm  -30.6598 3.15023 -5.28428
RightForeArm  -24.3578 17.4573 7.72527
RightHand  2.61804 7.50137 22.8188
LeftUpLeg  -101.795 19.8286 -22.5046
LeftLeg  61.6976 -4.19188 -7.81938
LeftFoot  -9.6095 -0.0602917 7.8082
LeftToes  5.72949e-011 5.22586e-011 2.45399e-011
956
root  0.578124 31.8333 -133.733 -133.23 -9.20304 -174.083
RightUpLeg  -87.8638 -6.53082 10.7332
RightLeg  63.863 -4.51815 -10.5466
RightFoot  -20.1472 0.553047 8.94454
RightToes  -5.8209e-011 0 -3.6325e-017
Spine  91.9273 -18.0691 -80.7782
Spine1  -95.5003 -80.4003 131.278
HEad  168.817 -0.719524 -178.831
LeftShoulder1  36.3651 54.7954 76.7281
LeftArm  45.43 41.0051 36.1384
LeftForeArm  -26.8421 -29.7175 -7.74941
LeftHand  0.894614 -1.69273 -14.4909
RightShoulder  -174.843 -64.7533 167.169
RightArm  -31.2827 2.89543 -5.16841
RightForeArm  -23.3894 16.9169 7.83574
RightHand  2.45029 7.11284 22.0404
LeftUpLeg  -101.925 19.3638 -22.5846
LeftLeg  61.7265 -4.16144 -7.76827
LeftFoot  -9.52666 -0.0641166 7.66167
LeftToes  5.72949e-011 5.22586e-011 2.45399e-011
957
root  0.561967 31.8712 -133.761 -133.194 -9.62419 -174.35
RightUpLeg  -87.6588 -6.45861 10.046
RightLeg  63.8102 -4.8892 -11.3117
RightFoot  -20.1964 0.593351 9.41715
RightToes  -5.8209e-011 0 -3.6325e-017
Spine  92.1582 -18.2011 -80.9919
Spine1  -95.4085 -80.0217 131.234
HEad  168.849 -1.0352 -178.745
LeftShoulder1  35.9576 54.983 75.8671
LeftArm  46.3497 41.2598 36.4994
LeftForeArm  -25.7917 -30.0296 -7.78851
LeftHand  0.773266 -1.23089 -13.4454
RightShoulder  -175.352 -64.6548 167.488
RightArm  -32.0325 2.90712 -4.86289
RightForeArm  -21.9519 15.7167 8.17057
RightHand  2.32229 6.85954 21.3351
LeftUpLeg  -101.679 18.991 -22.6782
LeftLeg  61.4906 -4.2256 -7.81276
LeftFoot  -9.22814 -0.0880297 7.77635
LeftToes  5.72949e-011 5.22586e-011 2.45399e-011
